<svg xmlns="http://www.w3.org/2000/svg" xmlns:xlink="http://www.w3.org/1999/xlink" width="40" zoomAndPan="magnify" viewBox="0 0 30 30.000001" height="40" preserveAspectRatio="xMidYMid meet" version="1.0"><defs><clipPath id="fcd724a20e"><path d="M 0.484375 13 L 29.515625 13 L 29.515625 16 L 0.484375 16 Z M 0.484375 13 " clip-rule="nonzero"/></clipPath><clipPath id="b39fecd528"><path d="M 24 18 L 29 18 L 29 29.03125 L 24 29.03125 Z M 24 18 " clip-rule="nonzero"/></clipPath><clipPath id="8259080d3d"><path d="M 1 18 L 11 18 L 11 29.03125 L 1 29.03125 Z M 1 18 " clip-rule="nonzero"/></clipPath></defs><g clip-path="url(#fcd724a20e)"><path fill="#141518" d="M 1.351562 13.0625 L 28.652344 13.0625 C 28.886719 13.0625 29.085938 13.101562 29.253906 13.179688 C 29.421875 13.257812 29.503906 13.351562 29.503906 13.460938 L 29.503906 15.527344 C 29.503906 15.636719 29.421875 15.730469 29.253906 15.804688 C 29.085938 15.882812 28.886719 15.921875 28.652344 15.921875 L 1.351562 15.921875 C 1.113281 15.921875 0.914062 15.882812 0.746094 15.804688 C 0.582031 15.730469 0.5 15.636719 0.5 15.527344 L 0.5 13.460938 C 0.5 13.351562 0.582031 13.257812 0.746094 13.179688 C 0.914062 13.101562 1.113281 13.0625 1.351562 13.0625 Z M 1.351562 13.0625 " fill-opacity="1" fill-rule="evenodd"/></g><path fill="#f3ef52" d="M 14.414062 5.507812 L 16.789062 5.507812 C 16.992188 5.507812 17.167969 5.527344 17.3125 5.558594 C 17.457031 5.59375 17.527344 5.632812 17.527344 5.679688 L 17.527344 10.851562 C 17.527344 10.898438 17.457031 10.941406 17.3125 10.972656 C 17.167969 11.007812 16.992188 11.023438 16.789062 11.023438 L 14.414062 11.023438 C 14.207031 11.023438 14.035156 11.007812 13.890625 10.972656 C 13.746094 10.941406 13.675781 10.898438 13.675781 10.851562 L 13.675781 5.679688 C 13.675781 5.632812 13.746094 5.59375 13.890625 5.558594 C 14.035156 5.527344 14.207031 5.507812 14.414062 5.507812 Z M 14.414062 5.507812 " fill-opacity="1" fill-rule="evenodd"/><path fill="#f3ef52" d="M 2.714844 0 L 5.089844 0 C 5.292969 0 5.46875 0.0390625 5.613281 0.117188 C 5.757812 0.195312 5.828125 0.289062 5.828125 0.398438 L 5.828125 10.632812 C 5.828125 10.742188 5.757812 10.835938 5.613281 10.914062 C 5.46875 10.988281 5.292969 11.027344 5.089844 11.027344 L 2.714844 11.027344 C 2.507812 11.027344 2.335938 10.988281 2.191406 10.914062 C 2.046875 10.835938 1.976562 10.742188 1.976562 10.632812 L 1.976562 0.398438 C 1.976562 0.289062 2.046875 0.195312 2.191406 0.117188 C 2.335938 0.0390625 2.507812 0 2.714844 0 Z M 2.714844 0 " fill-opacity="1" fill-rule="evenodd"/><path fill="#f3ef52" d="M 8.5625 2.328125 L 10.941406 2.328125 C 11.144531 2.328125 11.316406 2.355469 11.460938 2.410156 C 11.605469 2.46875 11.679688 2.535156 11.679688 2.613281 L 11.679688 10.742188 C 11.679688 10.820312 11.605469 10.886719 11.460938 10.941406 C 11.316406 10.996094 11.144531 11.027344 10.941406 11.027344 L 8.5625 11.027344 C 8.359375 11.027344 8.183594 10.996094 8.039062 10.941406 C 7.894531 10.886719 7.824219 10.820312 7.824219 10.742188 L 7.824219 2.613281 C 7.824219 2.535156 7.894531 2.46875 8.039062 2.410156 C 8.183594 2.355469 8.359375 2.328125 8.5625 2.328125 Z M 8.5625 2.328125 " fill-opacity="1" fill-rule="evenodd"/><path fill="#f3ef52" d="M 25.828125 6.191406 L 25.828125 10.28125 C 25.828125 10.675781 25.488281 11.019531 25.089844 11.019531 L 22.703125 11.019531 C 22.304688 11.019531 21.964844 10.675781 21.964844 10.28125 L 21.964844 6.191406 L 20.714844 6.191406 C 20.375 6.191406 20.035156 5.964844 19.921875 5.679688 C 19.75 5.339844 19.75 4.996094 19.976562 4.714844 L 23.160156 0.398438 C 23.328125 0.113281 23.613281 0 23.898438 0 C 24.179688 0 24.464844 0.113281 24.636719 0.398438 L 27.816406 4.714844 C 28.042969 4.996094 28.042969 5.339844 27.929688 5.679688 C 27.757812 5.964844 27.472656 6.191406 27.078125 6.191406 Z M 25.828125 6.191406 " fill-opacity="1" fill-rule="evenodd"/><path fill="#f3ef52" d="M 13.21875 18.003906 L 15.597656 18.003906 C 15.800781 18.003906 15.972656 18.019531 16.117188 18.054688 C 16.261719 18.085938 16.335938 18.125 16.335938 18.171875 L 16.335938 23.347656 C 16.335938 23.394531 16.261719 23.433594 16.117188 23.46875 C 15.972656 23.5 15.800781 23.515625 15.597656 23.515625 L 13.21875 23.515625 C 13.015625 23.515625 12.839844 23.5 12.699219 23.46875 C 12.554688 23.433594 12.480469 23.394531 12.480469 23.347656 L 12.480469 18.171875 C 12.480469 18.125 12.554688 18.085938 12.699219 18.054688 C 12.839844 18.019531 13.015625 18.003906 13.21875 18.003906 Z M 13.21875 18.003906 " fill-opacity="1" fill-rule="evenodd"/><g clip-path="url(#b39fecd528)"><path fill="#f3ef52" d="M 24.917969 18.003906 L 27.296875 18.003906 C 27.5 18.003906 27.671875 18.042969 27.816406 18.121094 C 27.960938 18.195312 28.035156 18.289062 28.035156 18.402344 L 28.035156 28.632812 C 28.035156 28.742188 27.960938 28.835938 27.816406 28.914062 C 27.671875 28.992188 27.5 29.03125 27.296875 29.03125 L 24.917969 29.03125 C 24.714844 29.03125 24.539062 28.992188 24.398438 28.914062 C 24.253906 28.835938 24.179688 28.742188 24.179688 28.632812 L 24.179688 18.402344 C 24.179688 18.289062 24.253906 18.195312 24.398438 18.121094 C 24.539062 18.042969 24.714844 18.003906 24.917969 18.003906 Z M 24.917969 18.003906 " fill-opacity="1" fill-rule="evenodd"/></g><path fill="#f3ef52" d="M 19.070312 18.003906 L 21.445312 18.003906 C 21.648438 18.003906 21.824219 18.03125 21.96875 18.085938 C 22.113281 18.140625 22.183594 18.207031 22.183594 18.289062 L 22.183594 26.417969 C 22.183594 26.496094 22.113281 26.5625 21.96875 26.617188 C 21.824219 26.671875 21.648438 26.699219 21.445312 26.699219 L 19.070312 26.699219 C 18.867188 26.699219 18.691406 26.671875 18.546875 26.617188 C 18.402344 26.5625 18.332031 26.496094 18.332031 26.417969 L 18.332031 18.289062 C 18.332031 18.207031 18.402344 18.140625 18.546875 18.085938 C 18.691406 18.03125 18.867188 18.003906 19.070312 18.003906 Z M 19.070312 18.003906 " fill-opacity="1" fill-rule="evenodd"/><g clip-path="url(#8259080d3d)"><path fill="#f3ef52" d="M 4.191406 22.832031 L 4.191406 18.742188 C 4.191406 18.289062 4.53125 18.003906 4.929688 18.003906 L 7.257812 18.003906 C 7.710938 18.003906 8.050781 18.289062 8.050781 18.742188 L 8.050781 22.832031 L 9.300781 22.832031 C 9.640625 22.832031 9.925781 23 10.097656 23.339844 C 10.265625 23.625 10.210938 23.964844 10.039062 24.25 L 6.859375 28.625 C 6.632812 28.851562 6.40625 29.019531 6.121094 29.019531 C 5.78125 29.019531 5.550781 28.851562 5.382812 28.625 L 2.203125 24.25 C 1.976562 23.964844 1.917969 23.625 2.089844 23.339844 C 2.257812 23 2.542969 22.832031 2.882812 22.832031 Z M 4.191406 22.832031 " fill-opacity="1" fill-rule="evenodd"/></g></svg>